<svg xmlns="http://www.w3.org/2000/svg" viewBox="0 0 471 84"><defs><style>.cls-1{fill:#2774ae;}.cls-2{fill:#fff;}</style></defs><g id="Boxed_Black" data-name="Boxed Black"><path d="M126.28,32.93h3.64L136,50.26h-3.66l-1.17-3.68H125l-1.14,3.68h-3.57Zm-.51,11h4.58l-1.55-5c-.29-.92-.7-2.67-.7-2.67h0s-.44,1.75-.73,2.67Z"/><path d="M136.2,44.05c0-3.88,2.21-6.57,5.31-6.57A3.94,3.94,0,0,1,145,39.33h.07v-6.4h3.3V50.26h-3.18V48.64h0a4.14,4.14,0,0,1-3.71,2C138.34,50.62,136.2,48.08,136.2,44.05Zm9,.08c0-2.38-.78-4-2.89-4-1.82,0-2.74,1.6-2.74,3.9s.95,3.81,2.64,3.81C144.16,47.86,145.18,46.41,145.18,44.13Z"/><path d="M149.34,37.82h3.35l2,6.45c.36,1.19.56,2,.56,2h0s.17-.8.53-2l2-6.45h3.29l-4.34,12.44h-3.15Z"/><path d="M169.08,48.88H169c-.63.95-1.53,1.67-3.66,1.67-2.55,0-4.34-1.33-4.34-3.8,0-2.74,2.23-3.62,5-4,2.06-.3,3-.46,3-1.41s-.71-1.48-2.09-1.48c-1.55,0-2.3.56-2.4,1.75h-2.93c.1-2.19,1.72-4.1,5.36-4.1s5.23,1.67,5.23,4.58v6.33c0,.94.15,1.5.44,1.72v.12h-3.18A3.37,3.37,0,0,1,169.08,48.88Zm0-3V44a9,9,0,0,1-2.3.72c-1.72.39-2.57.78-2.57,1.94s.77,1.58,1.94,1.58C168.06,48.25,169.1,47.09,169.1,45.87Z"/><path d="M177.48,39.52h.08a4,4,0,0,1,3.68-2c2.57,0,4.29,1.94,4.29,4.66v8.12h-3.29V42.62a2.07,2.07,0,0,0-2.16-2.28,2.6,2.6,0,0,0-2.52,2.87v7h-3.3V37.82h3.22Z"/><path d="M186.93,44.05c0-3.71,2.43-6.57,6.21-6.57A5.28,5.28,0,0,1,198.79,42h-3.22a2.28,2.28,0,0,0-2.28-1.91c-2,0-3,1.52-3,3.92s.95,3.93,3,3.93a2.33,2.33,0,0,0,2.5-2.11h3.17c-.22,2.65-2.28,4.75-5.6,4.75C189.38,50.62,186.93,47.76,186.93,44.05Z"/><path d="M199.65,44c0-3.69,2.5-6.55,6.14-6.55,4,0,6.13,3.06,6.13,7.5h-9c.24,1.91,1.31,3.1,3.18,3.1a2.33,2.33,0,0,0,2.4-1.53h3.25c-.46,2.21-2.43,4.07-5.63,4.07C202,50.62,199.65,47.74,199.65,44ZM203,42.7h5.53A2.62,2.62,0,0,0,205.84,40C204.09,40,203.24,41.07,203,42.7Z"/><path d="M212.83,44.05c0-3.88,2.2-6.57,5.31-6.57a3.93,3.93,0,0,1,3.51,1.85h.08v-6.4H225V50.26h-3.17V48.64h0a4.14,4.14,0,0,1-3.71,2C215,50.62,212.83,48.08,212.83,44.05Zm9,.08c0-2.38-.78-4-2.89-4-1.81,0-2.74,1.6-2.74,3.9s1,3.81,2.65,3.81C220.78,47.86,221.8,46.41,221.8,44.13Z"/><path d="M231.5,32.93h7.95c3.35,0,5.58,1.94,5.58,4.82a4,4,0,0,1-3.18,4.2V42c1.6.46,2.43,1.38,2.65,3.49.24,2.45.14,4.32.75,4.58v.17h-3.37c-.44-.19-.49-2.13-.63-4s-1.22-3-3.4-3H235v7H231.5ZM235,40.59h3.73c1.91,0,2.86-1,2.86-2.38s-.9-2.45-2.76-2.45H235Z"/><path d="M246.22,44c0-3.69,2.5-6.55,6.13-6.55,4,0,6.14,3.06,6.14,7.5h-9c.24,1.91,1.31,3.1,3.17,3.1a2.31,2.31,0,0,0,2.4-1.53h3.25c-.46,2.21-2.42,4.07-5.62,4.07C248.55,50.62,246.22,47.74,246.22,44Zm3.3-1.33H255A2.62,2.62,0,0,0,252.4,40C250.66,40,249.81,41.07,249.52,42.7Z"/><path d="M259.2,46.24h3.05c.22,1.43,1.24,2.06,2.72,2.06s2.28-.56,2.28-1.43c0-1.19-1.58-1.31-3.28-1.65-2.23-.44-4.41-1-4.41-3.76s2.23-4,5.07-4c3.27,0,5.09,1.63,5.33,4.13h-3c-.15-1.34-1-1.82-2.4-1.82s-2.13.48-2.13,1.38c0,1.07,1.64,1.16,3.41,1.53,2.09.43,4.39,1,4.39,3.92,0,2.5-2.13,4-5.23,4C261.4,50.62,259.39,48.88,259.2,46.24Z"/><path d="M271,44c0-3.69,2.5-6.55,6.13-6.55,4,0,6.14,3.06,6.14,7.5h-9c.24,1.91,1.31,3.1,3.18,3.1a2.33,2.33,0,0,0,2.4-1.53h3.25c-.47,2.21-2.43,4.07-5.63,4.07C273.35,50.62,271,47.74,271,44Zm3.3-1.33h5.53A2.63,2.63,0,0,0,277.2,40C275.46,40,274.61,41.07,274.32,42.7Z"/><path d="M292.13,48.88h-.05c-.63.95-1.52,1.67-3.66,1.67-2.54,0-4.34-1.33-4.34-3.8,0-2.74,2.23-3.62,5-4,2.06-.3,3-.46,3-1.41s-.7-1.48-2.08-1.48c-1.55,0-2.31.56-2.4,1.75h-2.94c.1-2.19,1.72-4.1,5.36-4.1s5.24,1.67,5.24,4.58v6.33c0,.94.14,1.5.44,1.72v.12h-3.18A3.35,3.35,0,0,1,292.13,48.88Zm0-3V44a9.1,9.1,0,0,1-2.31.72c-1.72.39-2.57.78-2.57,1.94s.78,1.58,1.94,1.58C291.11,48.25,292.16,47.09,292.16,45.87Z"/><path d="M300.49,39.81h.07c.75-1.4,1.6-2.13,3.06-2.13a2,2,0,0,1,.77.1v2.88h-.07c-2.16-.22-3.71.92-3.71,3.54v6.06h-3.3V37.82h3.18Z"/><path d="M304.89,44.05c0-3.71,2.42-6.57,6.2-6.57,3.23,0,5.22,1.87,5.65,4.56h-3.22a2.28,2.28,0,0,0-2.28-1.91c-2,0-3,1.52-3,3.92s.95,3.93,3,3.93a2.33,2.33,0,0,0,2.5-2.11h3.18c-.22,2.65-2.28,4.75-5.61,4.75C307.34,50.62,304.89,47.76,304.89,44.05Z"/><path d="M321.56,39.45h.07a4,4,0,0,1,3.61-2c2.57,0,4.3,1.94,4.3,4.66v8.12h-3.3V42.62a2.07,2.07,0,0,0-2.16-2.28,2.6,2.6,0,0,0-2.52,2.87v7h-3.3V32.93h3.3Z"/><path d="M335.16,41.65c0-5.14,3.2-9.06,8.32-9.06,4.27,0,6.79,2.54,7.15,5.84h-3.49a3.43,3.43,0,0,0-3.66-2.89c-3.2,0-4.73,2.67-4.73,6.11s1.84,6.09,4.75,6.09a3.5,3.5,0,0,0,3.74-3.05h3.44a6.13,6.13,0,0,1-1.92,4.09,7.29,7.29,0,0,1-5.26,1.84C338.63,50.62,335.16,46.87,335.16,41.65Z"/><path d="M351.6,44.05a6.5,6.5,0,1,1,13,0,6.5,6.5,0,1,1-13,0Zm9.65,0c0-2.42-1.14-4.07-3.15-4.07S355,41.63,355,44.05s1.11,4.05,3.15,4.05S361.25,46.48,361.25,44.05Z"/><path d="M366.08,37.82h3.18V39.5h.07a4.08,4.08,0,0,1,3.62-2,3.72,3.72,0,0,1,3.44,2.19h.05a4.34,4.34,0,0,1,3.73-2.19c2.62,0,4.1,1.7,4.1,4.42v8.36H381V42.45c0-1.4-.7-2.13-1.91-2.13-1.39,0-2.23,1.07-2.23,2.72v7.22h-3.3V42.45c0-1.4-.7-2.13-1.92-2.13s-2.23,1.07-2.23,2.72v7.22h-3.3Z"/><path d="M386.34,37.82h3.17v1.56h.07a4.34,4.34,0,0,1,3.67-1.9c3.29,0,5.4,2.69,5.4,6.57,0,4-2.18,6.57-5.38,6.57a4,4,0,0,1-3.59-1.76h-.05v5.47h-3.29Zm9,6.33c0-2.35-.83-4-2.86-4s-2.89,1.77-2.89,4,1,3.74,3,3.74C394.24,47.89,395.31,46.5,395.31,44.15Z"/><path d="M408,50.26V48.81H408a4,4,0,0,1-3.57,1.79c-2.76,0-4.31-1.77-4.31-4.48v-8.3h3.27v7.74c0,1.45.65,2.25,2.06,2.25a2.51,2.51,0,0,0,2.5-2.81V37.82h3.29V50.26Z"/><path d="M412.36,37.82h1.72V33.94h3.22v3.88h2.14V40H417.3V46.6a1.1,1.1,0,0,0,1.24,1.24c.41,0,1,0,1,0v2.43s-.75,0-2.06,0c-1.6,0-3.37-.63-3.37-3V40h-1.72Z"/><path d="M421,32.93h3.29v3H421Zm0,4.89h3.29V50.26H421Z"/><path d="M429.57,39.52h.07a4.06,4.06,0,0,1,3.69-2c2.57,0,4.29,1.94,4.29,4.66v8.12h-3.3V42.62a2.07,2.07,0,0,0-2.16-2.28,2.61,2.61,0,0,0-2.52,2.87v7h-3.29V37.82h3.22Z"/><path d="M439.24,50.62h3.27c.27.78,1,1.39,2.5,1.39,1.87,0,2.77-.9,2.77-2.6V48.06h-.08a4,4,0,0,1-3.25,1.45A5.59,5.59,0,0,1,439,43.57c0-3.71,2.24-6.09,5.39-6.09a4,4,0,0,1,3.44,1.65h.05V37.82H451v11.5a4.83,4.83,0,0,1-1.47,3.78,6.53,6.53,0,0,1-4.49,1.4C441.67,54.5,439.58,53.05,439.24,50.62ZM448,43.5c0-1.82-1-3.37-3-3.37-1.68,0-2.79,1.31-2.79,3.39s1.11,3.35,2.81,3.35C447.1,46.87,448,45.34,448,43.5Z"/><g id="_logo_" data-name="&lt;logo&gt;"><rect class="cls-1" x="20" y="20" width="92" height="44"/><path class="cls-2" d="M34.71,46.23a19,19,0,0,1,0-2.22l1-12h3.85l-1,12.1c-.23,2.62.78,4.48,3.34,4.48s4-1.9,4.24-4.22L47.17,32H51L50,44.22c-.42,4.71-3.48,8.23-8.43,8.23-3.85,0-6.34-2.55-6.81-6.22"/><path class="cls-2" d="M51.9,42.17c.51-5.76,4.32-10.53,10.89-10.53a8.87,8.87,0,0,1,5.06,1.49l-.44,4.76a5.64,5.64,0,0,0-5-2.37c-4.1,0-6.34,2.9-6.66,6.57s1.49,6.48,5.46,6.48a7.29,7.29,0,0,0,5.49-2.47L66.3,51a11,11,0,0,1-5.37,1.5c-6.51,0-9.49-4.93-9-10.32"/><path class="cls-2" d="M70.93,32h3.84L73.36,48.3h5.51c.38,0,1.7,0,2,0,0,.2-.35,3.77-.35,3.77H69.18Z"/><path class="cls-2" d="M90.93,39.49a5.65,5.65,0,0,0,.29-.84h.06a4.61,4.61,0,0,0,.15.85c.21.91,1.7,6,1.7,6H88.28s2.6-5.85,2.65-6m1-8.39h-.27L81.14,52h4.08l1.48-3.18h7.4L95,52H99.1Z"/></g></g></svg>