<svg xmlns="http://www.w3.org/2000/svg" viewBox="0 0 304 84"><defs><style>.cls-1{fill:#2774ae;}.cls-2{fill:#fff;}</style></defs><g id="Boxed_Black" data-name="Boxed Black"><path d="M123.62,25.41h2.72l4.56,12.94h-2.73l-.87-2.75h-4.67l-.85,2.75h-2.66Zm-.38,8.18h3.42l-1.15-3.73c-.22-.69-.53-2-.53-2h0s-.32,1.3-.54,2Z"/><path d="M131.06,33.71c0-2.89,1.65-4.9,4-4.9a3,3,0,0,1,2.63,1.38h0V25.41h2.46V38.35h-2.37V37.13h0A3.1,3.1,0,0,1,135,38.62C132.65,38.62,131.06,36.72,131.06,33.71Zm6.7.06c0-1.77-.58-3-2.16-3-1.35,0-2,1.2-2,2.91s.7,2.85,2,2.85C137,36.56,137.76,35.47,137.76,33.77Z"/><path d="M140.9,29.06h2.5l1.48,4.82c.27.88.42,1.48.42,1.48h0s.13-.6.4-1.48l1.52-4.82h2.46l-3.24,9.29h-2.35Z"/><path d="M155.66,37.32h0a2.85,2.85,0,0,1-2.73,1.24c-1.9,0-3.24-1-3.24-2.84,0-2,1.66-2.69,3.73-3,1.54-.22,2.24-.35,2.24-1.05s-.52-1.11-1.56-1.11-1.71.42-1.79,1.31h-2.19c.08-1.63,1.29-3.06,4-3.06S158,30.08,158,32.25V37c0,.71.11,1.12.33,1.29v.09H156A2.39,2.39,0,0,1,155.66,37.32Zm0-2.25V33.68a7,7,0,0,1-1.72.54c-1.29.29-1.92.58-1.92,1.45s.58,1.17,1.45,1.17C154.9,36.84,155.68,36,155.68,35.07Z"/><path d="M162,30.33h0a3,3,0,0,1,2.75-1.52,3.19,3.19,0,0,1,3.2,3.47v6.07H165.5v-5.7a1.54,1.54,0,0,0-1.61-1.7A1.94,1.94,0,0,0,162,33.08v5.27h-2.46V29.06H162Z"/><path d="M169,33.71a4.58,4.58,0,0,1,4.64-4.9,3.93,3.93,0,0,1,4.21,3.4h-2.4a1.71,1.71,0,0,0-1.7-1.43c-1.49,0-2.25,1.14-2.25,2.93s.71,2.94,2.21,2.94a1.73,1.73,0,0,0,1.86-1.58H178a3.89,3.89,0,0,1-4.18,3.55A4.62,4.62,0,0,1,169,33.71Z"/><path d="M178.56,33.7a4.59,4.59,0,0,1,4.57-4.89c3,0,4.58,2.28,4.58,5.59H181a2.31,2.31,0,0,0,2.37,2.32,1.74,1.74,0,0,0,1.79-1.14h2.43a4,4,0,0,1-4.2,3A4.59,4.59,0,0,1,178.56,33.7Zm2.46-1h4.12a2,2,0,0,0-2-2A2.06,2.06,0,0,0,181,32.7Z"/><path d="M188.42,33.71c0-2.89,1.65-4.9,4-4.9A3,3,0,0,1,195,30.19h.05V25.41h2.46V38.35h-2.37V37.13h0a3.07,3.07,0,0,1-2.76,1.49C190,38.62,188.42,36.72,188.42,33.71Zm6.69.06c0-1.77-.57-3-2.15-3-1.36,0-2,1.2-2,2.91s.7,2.85,2,2.85C194.35,36.56,195.11,35.47,195.11,33.77Z"/><path d="M120.06,44.83H126c2.5,0,4.17,1.45,4.17,3.6a3,3,0,0,1-2.37,3.13v0a2.57,2.57,0,0,1,2,2.61c.18,1.83.11,3.22.56,3.42v.13H127.8c-.32-.15-.36-1.6-.47-3a2.2,2.2,0,0,0-2.53-2.21h-2.12v5.2h-2.62Zm2.62,5.72h2.79c1.43,0,2.14-.75,2.14-1.78S126.94,47,125.54,47h-2.86Z"/><path d="M131.07,53.12a4.6,4.6,0,0,1,4.58-4.89c3,0,4.58,2.28,4.58,5.59H133.5a2.31,2.31,0,0,0,2.37,2.32A1.74,1.74,0,0,0,137.66,55h2.43a4,4,0,0,1-4.2,3A4.6,4.6,0,0,1,131.07,53.12Zm2.47-1h4.12a2,2,0,0,0-2-2A2.06,2.06,0,0,0,133.54,52.12Z"/><path d="M140.79,54.76h2.28a1.78,1.78,0,0,0,2,1.54c1.08,0,1.7-.42,1.7-1.07,0-.88-1.18-1-2.45-1.23-1.66-.32-3.29-.78-3.29-2.8s1.66-3,3.78-3c2.45,0,3.8,1.21,4,3.08H146.6c-.11-1-.74-1.36-1.79-1.36s-1.6.36-1.6,1,1.23.87,2.56,1.14c1.55.33,3.27.76,3.27,2.93,0,1.87-1.59,3-3.91,3C142.44,58,140.93,56.74,140.79,54.76Z"/><path d="M149.64,53.12a4.6,4.6,0,0,1,4.58-4.89c3,0,4.58,2.28,4.58,5.59h-6.73a2.31,2.31,0,0,0,2.37,2.32A1.74,1.74,0,0,0,156.23,55h2.42a4,4,0,0,1-4.19,3A4.6,4.6,0,0,1,149.64,53.12Zm2.46-1h4.13a2,2,0,0,0-2-2A2.07,2.07,0,0,0,152.1,52.12Z"/><path d="M165.43,56.74h0A2.85,2.85,0,0,1,162.66,58c-1.9,0-3.24-1-3.24-2.84,0-2,1.66-2.69,3.73-3,1.54-.22,2.24-.35,2.24-1S164.87,50,163.84,50s-1.72.42-1.8,1.31h-2.19c.08-1.63,1.29-3.06,4-3.06s3.91,1.25,3.91,3.42v4.72c0,.71.11,1.12.33,1.29v.09h-2.37A2.39,2.39,0,0,1,165.43,56.74Zm0-2.25V53.1a7,7,0,0,1-1.72.54c-1.29.29-1.92.58-1.92,1.45s.58,1.17,1.45,1.17C164.67,56.26,165.45,55.4,165.45,54.49Z"/><path d="M171.69,50h.06A2.43,2.43,0,0,1,174,48.38a1.44,1.44,0,0,1,.57.07V50.6h0c-1.61-.16-2.77.69-2.77,2.64v4.53h-2.46V48.48h2.37Z"/><path d="M175,53.13a4.58,4.58,0,0,1,4.64-4.9,3.93,3.93,0,0,1,4.21,3.4h-2.4a1.71,1.71,0,0,0-1.7-1.43c-1.49,0-2.25,1.14-2.25,2.93s.71,2.94,2.21,2.94a1.73,1.73,0,0,0,1.86-1.58h2.37A3.89,3.89,0,0,1,179.76,58,4.62,4.62,0,0,1,175,53.13Z"/><path d="M187.47,49.7h.06a3,3,0,0,1,2.69-1.47,3.2,3.2,0,0,1,3.21,3.47v6.07H191v-5.7a1.54,1.54,0,0,0-1.61-1.7,1.94,1.94,0,0,0-1.89,2.13v5.27H185V44.83h2.46Z"/><path d="M197.63,51.34c0-3.83,2.39-6.77,6.2-6.77,3.19,0,5.07,1.9,5.34,4.37h-2.6a2.57,2.57,0,0,0-2.74-2.16c-2.38,0-3.52,2-3.52,4.56s1.37,4.54,3.54,4.54a2.6,2.6,0,0,0,2.79-2.28h2.57a4.54,4.54,0,0,1-1.43,3.06A5.45,5.45,0,0,1,203.85,58C200.22,58,197.63,55.23,197.63,51.34Z"/><path d="M209.93,53.13A4.85,4.85,0,1,1,214.78,58,4.72,4.72,0,0,1,209.93,53.13Zm7.2,0c0-1.81-.85-3-2.35-3s-2.35,1.23-2.35,3,.83,3,2.35,3S217.13,54.94,217.13,53.13Z"/><path d="M220.77,48.48h2.37v1.25h.05a3,3,0,0,1,2.7-1.5,2.76,2.76,0,0,1,2.57,1.63h0a3.22,3.22,0,0,1,2.78-1.63c2,0,3.06,1.27,3.06,3.29v6.25h-2.46V51.94c0-1-.52-1.59-1.43-1.59s-1.66.79-1.66,2v5.4h-2.46V51.94c0-1-.53-1.59-1.43-1.59s-1.67.79-1.67,2v5.4h-2.46Z"/><path d="M235.91,48.48h2.37v1.16h.06a3.25,3.25,0,0,1,2.73-1.41c2.46,0,4,2,4,4.9s-1.63,4.91-4,4.91a3,3,0,0,1-2.68-1.32h0v4.09h-2.46Zm6.7,4.73c0-1.76-.62-3-2.14-3s-2.15,1.32-2.15,3S239.1,56,240.56,56C241.81,56,242.61,55,242.61,53.21Z"/><path d="M252.14,57.77V56.68h0A3,3,0,0,1,249.43,58a3,3,0,0,1-3.22-3.35V48.48h2.44v5.78c0,1.08.49,1.68,1.54,1.68a1.87,1.87,0,0,0,1.86-2.1V48.48h2.47v9.29Z"/><path d="M255.4,48.48h1.28V45.59h2.41v2.89h1.59v1.63h-1.59V55A.82.82,0,0,0,260,56l.73,0v1.81s-.56,0-1.54,0c-1.19,0-2.52-.48-2.52-2.23V50.11H255.4Z"/><path d="M261.86,44.83h2.46V47h-2.46Zm0,3.65h2.46v9.29h-2.46Z"/><path d="M268.3,49.75h.06a3,3,0,0,1,2.75-1.52,3.19,3.19,0,0,1,3.2,3.47v6.07h-2.46v-5.7a1.54,1.54,0,0,0-1.61-1.7,1.93,1.93,0,0,0-1.88,2.13v5.27H265.9V48.48h2.4Z"/><path d="M275.55,58H278c.2.58.73,1,1.87,1,1.39,0,2.06-.67,2.06-1.94v-1h-.05a3,3,0,0,1-2.43,1.09,4.18,4.18,0,0,1-4.09-4.44c0-2.77,1.67-4.54,4-4.54a3,3,0,0,1,2.57,1.23h0v-1h2.37v8.58a3.59,3.59,0,0,1-1.11,2.82,4.83,4.83,0,0,1-3.35,1C277.36,60.93,275.8,59.85,275.55,58Zm6.5-5.32a2.24,2.24,0,0,0-2.21-2.52c-1.25,0-2.08,1-2.08,2.54s.83,2.49,2.1,2.49C281.41,55.23,282.05,54.09,282.05,52.72Z"/><g id="_logo_" data-name="&lt;logo&gt;"><rect class="cls-1" x="20" y="20" width="92" height="44"/><path class="cls-2" d="M34.71,46.23a19,19,0,0,1,0-2.22l1-12h3.85l-1,12.1c-.23,2.62.78,4.48,3.34,4.48s4-1.9,4.24-4.22L47.17,32H51L50,44.22c-.42,4.71-3.48,8.23-8.43,8.23-3.85,0-6.34-2.55-6.81-6.22"/><path class="cls-2" d="M51.9,42.17c.51-5.76,4.32-10.53,10.89-10.53a8.87,8.87,0,0,1,5.06,1.49l-.44,4.76a5.64,5.64,0,0,0-5-2.37c-4.1,0-6.34,2.9-6.66,6.57s1.49,6.48,5.46,6.48a7.29,7.29,0,0,0,5.49-2.47L66.3,51a11,11,0,0,1-5.37,1.5c-6.51,0-9.49-4.93-9-10.32"/><path class="cls-2" d="M70.93,32h3.84L73.36,48.3h5.51c.38,0,1.7,0,2,0,0,.2-.35,3.77-.35,3.77H69.18Z"/><path class="cls-2" d="M90.93,39.49a5.65,5.65,0,0,0,.29-.84h.06a4.61,4.61,0,0,0,.15.85c.21.91,1.7,6,1.7,6H88.28s2.6-5.85,2.65-6m1-8.39h-.27L81.14,52h4.08l1.48-3.18h7.4L95,52H99.1Z"/></g></g></svg>