<svg id="Unboxed_White" data-name="Unboxed White" xmlns="http://www.w3.org/2000/svg" viewBox="0 0 462 71"><defs><style>.cls-1{fill:#fff;}</style></defs><path class="cls-1" d="M116.81,29.19h3.63l6.11,17.34h-3.66l-1.16-3.69h-6.26l-1.14,3.69h-3.56Zm-.51,11h4.58l-1.55-5c-.29-.92-.71-2.66-.71-2.66h0s-.44,1.74-.73,2.66Z"/><path class="cls-1" d="M126.73,40.32c0-3.88,2.21-6.57,5.31-6.57a4,4,0,0,1,3.52,1.84h.07v-6.4h3.3V46.53h-3.18V44.9h-.05a4.13,4.13,0,0,1-3.71,2C128.86,46.89,126.73,44.34,126.73,40.32Zm9,.07c0-2.37-.77-4-2.88-4-1.82,0-2.74,1.6-2.74,3.9s.94,3.8,2.64,3.8C134.68,44.12,135.7,42.67,135.7,40.39Z"/><path class="cls-1" d="M139.87,34.09h3.35l2,6.45c.36,1.18.55,2,.55,2h.05s.17-.81.53-2l2-6.45h3.3l-4.34,12.44h-3.15Z"/><path class="cls-1" d="M159.6,45.14h0c-.63,1-1.52,1.68-3.66,1.68-2.54,0-4.34-1.34-4.34-3.81,0-2.74,2.23-3.61,5-4,2.06-.29,3-.46,3-1.41s-.7-1.48-2.08-1.48c-1.55,0-2.31.56-2.4,1.75h-2.94c.1-2.18,1.73-4.1,5.36-4.1s5.24,1.68,5.24,4.59v6.32c0,1,.15,1.51.44,1.72v.13H160A3.46,3.46,0,0,1,159.6,45.14Zm0-3V40.27a9.51,9.51,0,0,1-2.31.73c-1.72.38-2.57.77-2.57,1.94s.78,1.57,1.94,1.57C158.58,44.51,159.63,43.35,159.63,42.14Z"/><path class="cls-1" d="M168,35.79h.07a4,4,0,0,1,3.69-2c2.57,0,4.29,1.94,4.29,4.65v8.13h-3.3V38.89a2.07,2.07,0,0,0-2.16-2.28,2.6,2.6,0,0,0-2.52,2.86v7.06h-3.29V34.09H168Z"/><path class="cls-1" d="M177.46,40.32c0-3.71,2.42-6.57,6.21-6.57a5.29,5.29,0,0,1,5.65,4.56h-3.23a2.27,2.27,0,0,0-2.28-1.92c-2,0-3,1.53-3,3.93s.94,3.93,2.95,3.93a2.33,2.33,0,0,0,2.5-2.11h3.18c-.22,2.64-2.28,4.75-5.6,4.75C179.91,46.89,177.46,44,177.46,40.32Z"/><path class="cls-1" d="M190.18,40.29c0-3.68,2.5-6.54,6.13-6.54,4,0,6.14,3,6.14,7.49h-9c.24,1.92,1.31,3.1,3.17,3.1a2.32,2.32,0,0,0,2.4-1.52h3.25c-.46,2.2-2.42,4.07-5.62,4.07C192.51,46.89,190.18,44,190.18,40.29Zm3.3-1.33H199a2.61,2.61,0,0,0-2.64-2.67C194.62,36.29,193.77,37.34,193.48,39Z"/><path class="cls-1" d="M203.35,40.32c0-3.88,2.21-6.57,5.31-6.57a4,4,0,0,1,3.52,1.84h.07v-6.4h3.3V46.53h-3.18V44.9h-.05a4.12,4.12,0,0,1-3.7,2C205.49,46.89,203.35,44.34,203.35,40.32Zm9,.07c0-2.37-.77-4-2.88-4-1.82,0-2.74,1.6-2.74,3.9s1,3.8,2.64,3.8C211.31,44.12,212.32,42.67,212.32,40.39Z"/><path class="cls-1" d="M222,29.19H230c3.34,0,5.57,1.94,5.57,4.83a4,4,0,0,1-3.17,4.19v.07c1.6.46,2.42,1.38,2.64,3.49.24,2.45.15,4.32.75,4.59v.17H232.4c-.43-.2-.48-2.14-.63-4s-1.21-3-3.39-3h-2.84v7H222Zm3.51,7.66h3.74c1.91,0,2.86-1,2.86-2.38s-.9-2.44-2.77-2.44h-3.83Z"/><path class="cls-1" d="M236.74,40.29c0-3.68,2.5-6.54,6.14-6.54,4,0,6.13,3,6.13,7.49h-9c.25,1.92,1.31,3.1,3.18,3.1a2.32,2.32,0,0,0,2.4-1.52h3.25c-.46,2.2-2.43,4.07-5.63,4.07C239.07,46.89,236.74,44,236.74,40.29ZM240,39h5.53a2.62,2.62,0,0,0-2.64-2.67C241.18,36.29,240.33,37.34,240,39Z"/><path class="cls-1" d="M249.72,42.5h3.06c.22,1.43,1.23,2.06,2.71,2.06s2.28-.56,2.28-1.43c0-1.19-1.57-1.31-3.27-1.65-2.23-.43-4.41-1-4.41-3.76s2.23-4,5.06-4c3.28,0,5.1,1.62,5.34,4.12h-3c-.15-1.33-1-1.82-2.4-1.82s-2.14.49-2.14,1.38c0,1.07,1.65,1.17,3.42,1.53,2.09.44,4.39,1,4.39,3.93,0,2.5-2.13,4-5.24,4C251.93,46.89,249.92,45.14,249.72,42.5Z"/><path class="cls-1" d="M261.55,40.29c0-3.68,2.49-6.54,6.13-6.54,4,0,6.14,3,6.14,7.49h-9c.25,1.92,1.32,3.1,3.18,3.1a2.32,2.32,0,0,0,2.4-1.52h3.25c-.46,2.2-2.42,4.07-5.62,4.07C263.87,46.89,261.55,44,261.55,40.29ZM264.84,39h5.53a2.62,2.62,0,0,0-2.64-2.67C266,36.29,265.13,37.34,264.84,39Z"/><path class="cls-1" d="M282.66,45.14h-.05c-.63,1-1.53,1.68-3.66,1.68-2.55,0-4.34-1.34-4.34-3.81,0-2.74,2.23-3.61,5-4,2.06-.29,3-.46,3-1.41s-.7-1.48-2.09-1.48c-1.55,0-2.3.56-2.4,1.75h-2.93c.1-2.18,1.72-4.1,5.36-4.1s5.24,1.68,5.24,4.59v6.32c0,1,.14,1.51.43,1.72v.13H283A3.48,3.48,0,0,1,282.66,45.14Zm0-3V40.27a9.43,9.43,0,0,1-2.3.73c-1.72.38-2.57.77-2.57,1.94s.77,1.57,1.94,1.57C281.64,44.51,282.68,43.35,282.68,42.14Z"/><path class="cls-1" d="M291,36.08h.07c.75-1.41,1.6-2.14,3.05-2.14a2.19,2.19,0,0,1,.78.1v2.88h-.07c-2.16-.21-3.71.93-3.71,3.54v6.07h-3.3V34.09H291Z"/><path class="cls-1" d="M295.41,40.32c0-3.71,2.43-6.57,6.21-6.57a5.28,5.28,0,0,1,5.65,4.56H304a2.26,2.26,0,0,0-2.27-1.92c-2,0-3,1.53-3,3.93s.95,3.93,3,3.93a2.32,2.32,0,0,0,2.49-2.11h3.18c-.22,2.64-2.28,4.75-5.6,4.75C297.86,46.89,295.41,44,295.41,40.32Z"/><path class="cls-1" d="M312.08,35.71h.08a4,4,0,0,1,3.61-2c2.57,0,4.29,1.94,4.29,4.65v8.13h-3.3V38.89a2.06,2.06,0,0,0-2.15-2.28,2.6,2.6,0,0,0-2.53,2.86v7.06h-3.29V29.19h3.29Z"/><path class="cls-1" d="M325.69,37.92c0-5.14,3.2-9.07,8.31-9.07,4.27,0,6.79,2.55,7.16,5.84h-3.49A3.44,3.44,0,0,0,334,31.81c-3.2,0-4.72,2.66-4.72,6.11S331.12,44,334,44a3.49,3.49,0,0,0,3.73-3h3.45a6.17,6.17,0,0,1-1.92,4.1A7.35,7.35,0,0,1,334,46.89C329.16,46.89,325.69,43.13,325.69,37.92Z"/><path class="cls-1" d="M342.13,40.32a6.5,6.5,0,1,1,13,0,6.5,6.5,0,1,1-13,0Zm9.65,0c0-2.43-1.14-4.07-3.15-4.07s-3.15,1.64-3.15,4.07,1.11,4,3.15,4S351.78,42.74,351.78,40.32Z"/><path class="cls-1" d="M356.61,34.09h3.18v1.67h.07a4.06,4.06,0,0,1,3.61-2,3.72,3.72,0,0,1,3.45,2.18h0a4.34,4.34,0,0,1,3.74-2.18c2.62,0,4.09,1.7,4.09,4.41v8.37H371.5V38.72c0-1.41-.71-2.14-1.92-2.14-1.38,0-2.23,1.07-2.23,2.72v7.23h-3.3V38.72c0-1.41-.7-2.14-1.91-2.14s-2.23,1.07-2.23,2.72v7.23h-3.3Z"/><path class="cls-1" d="M376.86,34.09H380v1.55h.07a4.34,4.34,0,0,1,3.66-1.89c3.3,0,5.41,2.69,5.41,6.57s-2.18,6.57-5.38,6.57a4,4,0,0,1-3.59-1.77h0V50.6h-3.3Zm9,6.33c0-2.36-.82-4-2.86-4s-2.88,1.77-2.88,4,1,3.73,3,3.73C384.77,44.15,385.83,42.77,385.83,40.42Z"/><path class="cls-1" d="M398.56,46.53V45.07h-.07a4,4,0,0,1-3.56,1.8c-2.77,0-4.32-1.77-4.32-4.49V34.09h3.27v7.73c0,1.46.66,2.26,2.07,2.26a2.51,2.51,0,0,0,2.49-2.82V34.09h3.3V46.53Z"/><path class="cls-1" d="M402.88,34.09h1.73V30.21h3.22v3.88H410v2.18h-2.13v6.6a1.09,1.09,0,0,0,1.24,1.23l1,0V46.5s-.75,0-2.06,0c-1.6,0-3.37-.63-3.37-3v-7.3h-1.73Z"/><path class="cls-1" d="M411.5,29.19h3.3v3h-3.3Zm0,4.9h3.3V46.53h-3.3Z"/><path class="cls-1" d="M420.1,35.79h.07a4,4,0,0,1,3.68-2c2.57,0,4.3,1.94,4.3,4.65v8.13h-3.3V38.89a2.07,2.07,0,0,0-2.16-2.28,2.6,2.6,0,0,0-2.52,2.86v7.06h-3.3V34.09h3.23Z"/><path class="cls-1" d="M429.77,46.89H433c.27.78,1,1.38,2.5,1.38,1.86,0,2.76-.89,2.76-2.59V44.32h-.07A4,4,0,0,1,435,45.77a5.59,5.59,0,0,1-5.48-5.94c0-3.71,2.23-6.08,5.38-6.08a4,4,0,0,1,3.45,1.65h.05V34.09h3.17V45.58a4.82,4.82,0,0,1-1.48,3.78,6.49,6.49,0,0,1-4.48,1.41C432.19,50.77,430.11,49.31,429.77,46.89Zm8.7-7.13c0-1.82-1-3.37-3-3.37-1.67,0-2.78,1.31-2.78,3.4s1.11,3.34,2.81,3.34C437.62,43.13,438.47,41.6,438.47,39.76Z"/><g id="_logo_" data-name="&lt;logo&gt;"><path class="cls-1" d="M20.07,39.18A25.11,25.11,0,0,1,20,36.37l1.34-15.21h5L25,36.5c-.3,3.32,1,5.69,4.32,5.69s5.18-2.41,5.48-5.35l1.41-15.68h5L39.78,36.64c-.56,6-4.51,10.42-10.9,10.42-5,0-8.2-3.22-8.81-7.88"/><path class="cls-1" d="M42.3,34c.65-7.3,5.57-13.35,14.08-13.35a11.68,11.68,0,0,1,6.54,1.89l-.57,6a7.36,7.36,0,0,0-6.45-3c-5.29,0-8.19,3.68-8.61,8.33s1.94,8.22,7.07,8.22A9.5,9.5,0,0,0,61.46,39l-.56,6.19A14.31,14.31,0,0,1,54,47.12c-8.42,0-12.28-6.25-11.67-13.09"/><path class="cls-1" d="M66.89,21.16h5L70,41.81h7.12c.5,0,2.19,0,2.65-.05,0,.25-.45,4.77-.45,4.77H64.64Z"/><path class="cls-1" d="M92.76,30.63a6.8,6.8,0,0,0,.37-1.06s.08,0,.08,0a5.79,5.79,0,0,0,.18,1.08c.28,1.15,2.21,7.58,2.21,7.58H89.33s3.36-7.42,3.43-7.59M94,20h-.34L80.09,46.53h5.28l1.91-4h9.58l1.19,4h5.27Z"/></g></svg>