<svg xmlns="http://www.w3.org/2000/svg" viewBox="0 0 361 97"><defs><style>.cls-1{fill:#fff;}.cls-2{fill:#2774ae;}</style></defs><g id="Boxed_White" data-name="Boxed White"><path class="cls-1" d="M126.28,32.93h3.64L136,50.26h-3.66l-1.17-3.68H125l-1.14,3.68h-3.57Zm-.51,11h4.58l-1.55-5c-.29-.92-.7-2.67-.7-2.67h0s-.44,1.75-.73,2.67Z"/><path class="cls-1" d="M136.2,44.05c0-3.88,2.21-6.57,5.31-6.57A3.94,3.94,0,0,1,145,39.33h.07v-6.4h3.3V50.26h-3.18V48.64h-.05a4.11,4.11,0,0,1-3.7,2C138.34,50.62,136.2,48.08,136.2,44.05Zm9,.08c0-2.38-.77-4-2.88-4-1.82,0-2.74,1.6-2.74,3.9s.95,3.81,2.64,3.81C144.16,47.86,145.17,46.41,145.17,44.13Z"/><path class="cls-1" d="M149.34,37.82h3.35l2,6.45c.36,1.19.56,2,.56,2h0s.17-.8.54-2l2-6.45h3.3l-4.34,12.44h-3.15Z"/><path class="cls-1" d="M169.08,48.88H169c-.63.95-1.53,1.67-3.66,1.67-2.55,0-4.34-1.33-4.34-3.8,0-2.74,2.23-3.62,5-4,2.06-.3,3-.46,3-1.41s-.71-1.48-2.09-1.48c-1.55,0-2.3.56-2.4,1.75h-2.93c.09-2.19,1.72-4.1,5.36-4.1s5.23,1.67,5.23,4.58v6.33c0,.94.15,1.5.44,1.72v.12h-3.18A3.37,3.37,0,0,1,169.08,48.88Zm0-3V44a9,9,0,0,1-2.3.72c-1.73.39-2.57.78-2.57,1.94s.77,1.58,1.94,1.58C168.06,48.25,169.1,47.09,169.1,45.87Z"/><path class="cls-1" d="M177.48,39.52h.08a4,4,0,0,1,3.68-2c2.57,0,4.29,1.94,4.29,4.66v8.12h-3.29V42.62a2.07,2.07,0,0,0-2.16-2.28,2.6,2.6,0,0,0-2.52,2.87v7h-3.3V37.82h3.22Z"/><path class="cls-1" d="M186.93,44.05c0-3.71,2.43-6.57,6.21-6.57A5.28,5.28,0,0,1,198.79,42h-3.22a2.28,2.28,0,0,0-2.28-1.91c-2,0-3,1.52-3,3.92s.95,3.93,3,3.93a2.33,2.33,0,0,0,2.5-2.11h3.17c-.22,2.65-2.28,4.75-5.6,4.75C189.38,50.62,186.93,47.76,186.93,44.05Z"/><path class="cls-1" d="M199.65,44c0-3.69,2.5-6.55,6.14-6.55,4,0,6.13,3.06,6.13,7.5h-9c.24,1.91,1.31,3.1,3.18,3.1a2.33,2.33,0,0,0,2.4-1.53h3.25c-.46,2.21-2.43,4.07-5.63,4.07C202,50.62,199.65,47.74,199.65,44ZM203,42.7h5.53A2.62,2.62,0,0,0,205.84,40C204.09,40,203.24,41.07,203,42.7Z"/><path class="cls-1" d="M212.83,44.05c0-3.88,2.2-6.57,5.31-6.57a3.93,3.93,0,0,1,3.51,1.85h.08v-6.4H225V50.26h-3.17V48.64h0a4.14,4.14,0,0,1-3.71,2C215,50.62,212.83,48.08,212.83,44.05Zm9,.08c0-2.38-.78-4-2.89-4-1.82,0-2.74,1.6-2.74,3.9s1,3.81,2.65,3.81C220.78,47.86,221.8,46.41,221.8,44.13Z"/><path class="cls-1" d="M121.5,55.68h8c3.34,0,5.57,1.94,5.57,4.82a4,4,0,0,1-3.17,4.2v.07c1.6.46,2.42,1.38,2.64,3.49.24,2.45.15,4.32.75,4.58V73h-3.37c-.44-.19-.48-2.13-.63-4s-1.21-3-3.39-3H125v7H121.5ZM125,63.34h3.73c1.92,0,2.86-1,2.86-2.38s-.89-2.45-2.76-2.45H125Z"/><path class="cls-1" d="M136.22,66.78c0-3.69,2.5-6.55,6.14-6.55,4,0,6.13,3.06,6.13,7.5h-9c.24,1.91,1.31,3.1,3.18,3.1a2.33,2.33,0,0,0,2.4-1.53h3.25c-.46,2.21-2.43,4.08-5.63,4.08C138.55,73.38,136.22,70.49,136.22,66.78Zm3.3-1.33h5.53a2.62,2.62,0,0,0-2.64-2.67C140.66,62.78,139.81,63.82,139.52,65.45Z"/><path class="cls-1" d="M149.2,69h3.06c.21,1.43,1.23,2.06,2.71,2.06s2.28-.56,2.28-1.43c0-1.19-1.58-1.31-3.27-1.65-2.23-.44-4.42-1-4.42-3.76s2.23-4,5.07-4c3.27,0,5.09,1.63,5.34,4.13h-3c-.14-1.34-1-1.82-2.4-1.82s-2.13.48-2.13,1.38c0,1.07,1.65,1.16,3.42,1.53,2.08.43,4.39,1,4.39,3.93,0,2.49-2.14,4-5.24,4C151.41,73.38,149.39,71.63,149.2,69Z"/><path class="cls-1" d="M161,66.78c0-3.69,2.5-6.55,6.14-6.55,4,0,6.13,3.06,6.13,7.5h-9c.25,1.91,1.31,3.1,3.18,3.1a2.32,2.32,0,0,0,2.4-1.53h3.25c-.46,2.21-2.43,4.08-5.63,4.08C163.35,73.38,161,70.49,161,66.78Zm3.3-1.33h5.53a2.62,2.62,0,0,0-2.64-2.67C165.46,62.78,164.61,63.82,164.32,65.45Z"/><path class="cls-1" d="M182.13,71.63h0c-.63,1-1.53,1.67-3.66,1.67-2.55,0-4.35-1.33-4.35-3.8,0-2.74,2.24-3.62,5-4,2.06-.3,3-.46,3-1.41s-.71-1.48-2.09-1.48c-1.55,0-2.3.56-2.4,1.75h-2.93c.09-2.19,1.72-4.1,5.36-4.1s5.23,1.67,5.23,4.58v6.33c0,.94.15,1.5.44,1.72V73h-3.18A3.52,3.52,0,0,1,182.13,71.63Zm0-3V66.76a9,9,0,0,1-2.3.72c-1.73.39-2.57.78-2.57,1.94s.77,1.58,1.94,1.58C181.12,71,182.16,69.84,182.16,68.62Z"/><path class="cls-1" d="M190.49,62.56h.08c.75-1.4,1.6-2.13,3.05-2.13a2,2,0,0,1,.78.1v2.88h-.07c-2.16-.22-3.71.92-3.71,3.54V73h-3.3V60.57h3.17Z"/><path class="cls-1" d="M194.89,66.8c0-3.71,2.43-6.57,6.21-6.57a5.29,5.29,0,0,1,5.65,4.56h-3.23a2.27,2.27,0,0,0-2.28-1.91c-2,0-3,1.52-3,3.92s.94,3.93,3,3.93a2.32,2.32,0,0,0,2.49-2.11h3.18c-.22,2.65-2.28,4.76-5.6,4.76C197.34,73.38,194.89,70.51,194.89,66.8Z"/><path class="cls-1" d="M211.56,62.2h.07a4,4,0,0,1,3.62-2c2.57,0,4.29,1.94,4.29,4.66V73h-3.3V65.37a2.07,2.07,0,0,0-2.16-2.28A2.61,2.61,0,0,0,211.56,66V73h-3.3V55.68h3.3Z"/><path class="cls-1" d="M225.17,64.4c0-5.14,3.2-9.06,8.31-9.06,4.27,0,6.79,2.54,7.16,5.84h-3.5a3.42,3.42,0,0,0-3.66-2.89c-3.2,0-4.73,2.67-4.73,6.11s1.85,6.09,4.76,6.09a3.49,3.49,0,0,0,3.73-3h3.44a6.11,6.11,0,0,1-1.91,4.09,7.31,7.31,0,0,1-5.26,1.85C228.63,73.38,225.17,69.62,225.17,64.4Z"/><path class="cls-1" d="M241.61,66.8a6.5,6.5,0,1,1,6.49,6.58A6.32,6.32,0,0,1,241.61,66.8Zm9.65,0c0-2.42-1.14-4.07-3.16-4.07S245,64.38,245,66.8s1.12,4,3.15,4S251.26,69.23,251.26,66.8Z"/><path class="cls-1" d="M256.09,60.57h3.18v1.68h.07a4.06,4.06,0,0,1,3.61-2,3.7,3.7,0,0,1,3.44,2.19h.05a4.35,4.35,0,0,1,3.74-2.19c2.61,0,4.09,1.7,4.09,4.42V73H271V65.2c0-1.4-.71-2.13-1.92-2.13-1.38,0-2.23,1.07-2.23,2.72V73h-3.3V65.2c0-1.4-.7-2.13-1.91-2.13s-2.23,1.07-2.23,2.72V73h-3.3Z"/><path class="cls-1" d="M276.34,60.57h3.18v1.55h.07a4.34,4.34,0,0,1,3.66-1.89c3.3,0,5.41,2.69,5.41,6.57,0,4-2.19,6.58-5.39,6.58a4,4,0,0,1-3.58-1.77h-.05v5.47h-3.3Zm9,6.33c0-2.35-.82-4-2.86-4s-2.89,1.77-2.89,4,1.05,3.74,3,3.74C284.24,70.64,285.31,69.25,285.31,66.9Z"/><path class="cls-1" d="M298,73V71.56H298a4,4,0,0,1-3.56,1.79c-2.77,0-4.32-1.77-4.32-4.48v-8.3h3.27v7.74c0,1.45.66,2.25,2.06,2.25a2.51,2.51,0,0,0,2.5-2.81V60.57h3.3V73Z"/><path class="cls-1" d="M302.36,60.57h1.72V56.69h3.23v3.88h2.13v2.19h-2.13v6.59a1.09,1.09,0,0,0,1.23,1.24c.42,0,1,0,1,0V73s-.75.05-2.06.05c-1.6,0-3.37-.63-3.37-3V62.76h-1.72Z"/><path class="cls-1" d="M311,55.68h3.3v3H311Zm0,4.89h3.3V73H311Z"/><path class="cls-1" d="M319.57,62.27h.08a4,4,0,0,1,3.68-2c2.57,0,4.29,1.94,4.29,4.66V73h-3.29V65.37a2.07,2.07,0,0,0-2.16-2.28A2.6,2.6,0,0,0,319.65,66V73h-3.3V60.57h3.22Z"/><path class="cls-1" d="M329.25,73.38h3.27c.27.77,1,1.38,2.5,1.38,1.86,0,2.76-.9,2.76-2.6V70.81h-.07a4,4,0,0,1-3.25,1.45A5.59,5.59,0,0,1,329,66.32c0-3.71,2.23-6.09,5.38-6.09a4,4,0,0,1,3.44,1.65h.05V60.57H341v11.5a4.84,4.84,0,0,1-1.48,3.78,6.5,6.5,0,0,1-4.49,1.4C331.67,77.25,329.58,75.8,329.25,73.38Zm8.7-7.13c0-1.82-1-3.37-3-3.37-1.67,0-2.79,1.31-2.79,3.39s1.12,3.35,2.82,3.35C337.1,69.62,338,68.09,338,66.25Z"/><rect class="cls-2" x="20" y="20" width="92" height="44"/><path class="cls-1" d="M34.71,46.23a19,19,0,0,1,0-2.22l1-12h3.85l-1,12.1c-.23,2.62.78,4.48,3.34,4.48s4-1.9,4.24-4.22L47.17,32H51L50,44.22c-.42,4.71-3.48,8.23-8.43,8.23-3.85,0-6.34-2.55-6.81-6.22"/><path class="cls-1" d="M51.9,42.17c.51-5.76,4.32-10.53,10.89-10.53a8.87,8.87,0,0,1,5.06,1.49l-.44,4.76a5.64,5.64,0,0,0-5-2.37c-4.1,0-6.34,2.9-6.66,6.57s1.49,6.48,5.46,6.48a7.29,7.29,0,0,0,5.49-2.47L66.3,51a11,11,0,0,1-5.37,1.5c-6.51,0-9.49-4.93-9-10.32"/><path class="cls-1" d="M70.93,32h3.84L73.36,48.3h5.51c.38,0,1.7,0,2,0,0,.2-.35,3.77-.35,3.77H69.18Z"/><path class="cls-1" d="M90.93,39.49a5.65,5.65,0,0,0,.29-.84h.06a4.61,4.61,0,0,0,.15.85c.21.91,1.7,6,1.7,6H88.28s2.6-5.85,2.65-6m1-8.39h-.27L81.14,52h4.08l1.48-3.18h7.4L95,52H99.1Z"/></g></svg>