<svg xmlns="http://www.w3.org/2000/svg" viewBox="0 0 351 94"><defs><style>.cls-1{fill:#2774ae;}</style></defs><g id="Unboxed_Black" data-name="Unboxed Black"><path d="M116.8,29.22h3.64l6.11,17.33h-3.66l-1.16-3.68h-6.26l-1.14,3.68h-3.56Zm-.51,11h4.59l-1.56-5c-.29-.92-.7-2.66-.7-2.66h-.05s-.43,1.74-.72,2.66Z"/><path d="M126.73,40.35c0-3.88,2.2-6.57,5.31-6.57a4,4,0,0,1,3.51,1.84h.07v-6.4h3.3V46.55h-3.17V44.93h-.05a4.15,4.15,0,0,1-3.71,2C128.86,46.92,126.73,44.37,126.73,40.35Zm9,.07c0-2.38-.78-4-2.89-4-1.82,0-2.74,1.59-2.74,3.9s1,3.8,2.65,3.8C134.68,44.15,135.7,42.7,135.7,40.42Z"/><path d="M139.87,34.12h3.34l2,6.45c.37,1.18.56,2,.56,2h.05s.17-.8.53-2l2-6.45h3.3l-4.35,12.43h-3.15Z"/><path d="M159.6,45.17h0c-.63.95-1.53,1.68-3.66,1.68-2.55,0-4.34-1.34-4.34-3.81,0-2.74,2.23-3.61,5-4,2.06-.29,3-.46,3-1.41s-.7-1.48-2.09-1.48c-1.55,0-2.3.56-2.4,1.75h-2.93c.1-2.18,1.72-4.1,5.36-4.1s5.24,1.67,5.24,4.58v6.33c0,.95.14,1.5.43,1.72v.12H160A3.21,3.21,0,0,1,159.6,45.17Zm0-3V40.3a9.43,9.43,0,0,1-2.3.73c-1.72.38-2.57.77-2.57,1.94s.77,1.57,1.94,1.57C158.58,44.54,159.62,43.38,159.62,42.17Z"/><path d="M168,35.81h.07a4,4,0,0,1,3.68-2c2.57,0,4.3,1.94,4.3,4.65v8.12h-3.3V38.92a2.07,2.07,0,0,0-2.16-2.28,2.6,2.6,0,0,0-2.52,2.86v7h-3.3V34.12H168Z"/><path d="M177.46,40.35c0-3.71,2.42-6.57,6.2-6.57,3.23,0,5.22,1.86,5.65,4.56h-3.22a2.28,2.28,0,0,0-2.28-1.92c-2,0-3,1.53-3,3.93s.95,3.93,3,3.93a2.33,2.33,0,0,0,2.5-2.11h3.17c-.21,2.64-2.27,4.75-5.6,4.75C179.91,46.92,177.46,44.06,177.46,40.35Z"/><path d="M190.18,40.32c0-3.68,2.49-6.54,6.13-6.54,4,0,6.13,3,6.13,7.49h-9c.25,1.92,1.31,3.1,3.18,3.1a2.32,2.32,0,0,0,2.4-1.52h3.25c-.46,2.2-2.42,4.07-5.63,4.07C192.5,46.92,190.18,44,190.18,40.32ZM193.47,39H199a2.62,2.62,0,0,0-2.64-2.67C194.61,36.32,193.76,37.37,193.47,39Z"/><path d="M203.35,40.35c0-3.88,2.21-6.57,5.31-6.57a4,4,0,0,1,3.52,1.84h.07v-6.4h3.3V46.55h-3.18V44.93h-.05a4.13,4.13,0,0,1-3.71,2C205.48,46.92,203.35,44.37,203.35,40.35Zm9,.07c0-2.38-.77-4-2.88-4-1.82,0-2.74,1.59-2.74,3.9s.94,3.8,2.64,3.8C211.3,44.15,212.32,42.7,212.32,40.42Z"/><path d="M112,52h8c3.35,0,5.58,1.94,5.58,4.82a4,4,0,0,1-3.18,4.2v.07c1.6.46,2.42,1.38,2.64,3.49.24,2.45.15,4.32.75,4.58v.17H122.4c-.43-.19-.48-2.13-.63-4s-1.21-2.95-3.39-2.95h-2.84V69.3H112Zm3.51,7.66h3.74c1.91,0,2.86-1,2.86-2.38s-.9-2.44-2.77-2.44h-3.83Z"/><path d="M126.75,63.07c0-3.68,2.49-6.54,6.13-6.54,4,0,6.13,3,6.13,7.49h-9c.25,1.92,1.31,3.1,3.18,3.1a2.32,2.32,0,0,0,2.4-1.52h3.25c-.46,2.2-2.42,4.07-5.62,4.07C129.07,69.67,126.75,66.78,126.75,63.07ZM130,61.74h5.53a2.62,2.62,0,0,0-2.64-2.67C131.18,59.07,130.33,60.12,130,61.74Z"/><path d="M139.72,65.28h3.06a2.39,2.39,0,0,0,2.71,2.06c1.46,0,2.28-.56,2.28-1.43,0-1.19-1.57-1.31-3.27-1.65-2.23-.43-4.41-1-4.41-3.76s2.23-4,5.06-4c3.28,0,5.1,1.62,5.34,4.12h-3c-.15-1.33-1-1.82-2.4-1.82s-2.14.49-2.14,1.38c0,1.07,1.65,1.17,3.42,1.53,2.09.44,4.39,1,4.39,3.93,0,2.5-2.13,4-5.24,4C141.93,69.67,139.92,67.92,139.72,65.28Z"/><path d="M151.55,63.07c0-3.68,2.49-6.54,6.13-6.54,4,0,6.14,3,6.14,7.49h-9c.24,1.92,1.31,3.1,3.17,3.1a2.32,2.32,0,0,0,2.4-1.52h3.25c-.46,2.2-2.42,4.07-5.62,4.07C153.88,69.67,151.55,66.78,151.55,63.07Zm3.3-1.33h5.52a2.62,2.62,0,0,0-2.64-2.67C156,59.07,155.14,60.12,154.85,61.74Z"/><path d="M172.66,67.92h0c-.63,1-1.53,1.68-3.66,1.68-2.55,0-4.34-1.34-4.34-3.81,0-2.74,2.23-3.61,5-4,2.06-.29,3-.46,3-1.41s-.7-1.48-2.09-1.48c-1.55,0-2.3.56-2.4,1.75h-2.93c.1-2.18,1.72-4.1,5.36-4.1s5.24,1.67,5.24,4.58v6.33c0,1,.14,1.5.43,1.72v.12h-3.17A3.21,3.21,0,0,1,172.66,67.92Zm0-3V63.05a9.43,9.43,0,0,1-2.3.73c-1.72.38-2.57.77-2.57,1.94s.77,1.57,1.94,1.57C171.64,67.29,172.68,66.13,172.68,64.92Z"/><path d="M181,58.86h.07c.75-1.41,1.6-2.14,3.06-2.14a2.17,2.17,0,0,1,.77.1V59.7h-.07c-2.16-.21-3.71.92-3.71,3.54V69.3h-3.3V56.87H181Z"/><path d="M185.41,63.1c0-3.71,2.43-6.57,6.21-6.57,3.23,0,5.21,1.86,5.65,4.56h-3.22a2.28,2.28,0,0,0-2.28-1.92c-2,0-3,1.53-3,3.93s1,3.93,3,3.93a2.33,2.33,0,0,0,2.5-2.11h3.17c-.22,2.64-2.28,4.75-5.6,4.75C187.86,69.67,185.41,66.81,185.41,63.1Z"/><path d="M202.08,58.49h.08a4,4,0,0,1,3.61-2c2.57,0,4.29,1.94,4.29,4.65V69.3h-3.3V61.67a2.06,2.06,0,0,0-2.15-2.28,2.6,2.6,0,0,0-2.53,2.86v7h-3.29V52h3.29Z"/><path d="M215.69,60.7c0-5.14,3.2-9.07,8.32-9.07,4.26,0,6.78,2.55,7.15,5.84h-3.49A3.43,3.43,0,0,0,224,54.59c-3.2,0-4.73,2.66-4.73,6.11s1.84,6.08,4.75,6.08a3.48,3.48,0,0,0,3.73-3.05h3.45a6.15,6.15,0,0,1-1.92,4.1A7.35,7.35,0,0,1,224,69.67C219.16,69.67,215.69,65.91,215.69,60.7Z"/><path d="M232.13,63.1a6.5,6.5,0,1,1,6.5,6.57A6.32,6.32,0,0,1,232.13,63.1Zm9.65,0c0-2.43-1.14-4.07-3.15-4.07s-3.15,1.64-3.15,4.07,1.11,4.05,3.15,4.05S241.78,65.52,241.78,63.1Z"/><path d="M246.61,56.87h3.18v1.67h.07a4.06,4.06,0,0,1,3.61-2,3.72,3.72,0,0,1,3.45,2.18h0a4.34,4.34,0,0,1,3.74-2.18c2.62,0,4.1,1.69,4.1,4.41V69.3h-3.3V61.5c0-1.41-.7-2.14-1.92-2.14-1.38,0-2.23,1.07-2.23,2.72V69.3h-3.29V61.5c0-1.41-.71-2.14-1.92-2.14s-2.23,1.07-2.23,2.72V69.3h-3.3Z"/><path d="M266.86,56.87H270v1.55h.07a4.36,4.36,0,0,1,3.66-1.89c3.3,0,5.41,2.69,5.41,6.57s-2.18,6.57-5.38,6.57a4,4,0,0,1-3.59-1.77h0v5.48h-3.3Zm9,6.33c0-2.36-.82-4-2.86-4s-2.88,1.76-2.88,4,1,3.73,3,3.73C274.77,66.93,275.83,65.55,275.83,63.2Z"/><path d="M288.56,69.3V67.85h-.07a4,4,0,0,1-3.56,1.79c-2.77,0-4.32-1.76-4.32-4.48V56.87h3.28V64.6c0,1.46.65,2.26,2.06,2.26A2.51,2.51,0,0,0,288.44,64V56.87h3.3V69.3Z"/><path d="M292.88,56.87h1.73V53h3.22v3.88H300v2.18h-2.13v6.59a1.1,1.1,0,0,0,1.24,1.24l1,0v2.42s-.75,0-2.06,0c-1.6,0-3.37-.63-3.37-3v-7.3h-1.73Z"/><path d="M301.5,52h3.3v3h-3.3Zm0,4.9h3.3V69.3h-3.3Z"/><path d="M310.1,58.56h.07a4,4,0,0,1,3.68-2c2.57,0,4.3,1.94,4.3,4.65V69.3h-3.3V61.67a2.07,2.07,0,0,0-2.16-2.28,2.6,2.6,0,0,0-2.52,2.86v7h-3.3V56.87h3.23Z"/><path d="M319.77,69.67H323c.27.78,1,1.38,2.5,1.38,1.87,0,2.76-.9,2.76-2.59V67.1h-.07A4,4,0,0,1,325,68.55a5.59,5.59,0,0,1-5.48-5.94c0-3.71,2.23-6.08,5.38-6.08a4,4,0,0,1,3.45,1.65h.05V56.87h3.17V68.36a4.82,4.82,0,0,1-1.48,3.78,6.49,6.49,0,0,1-4.48,1.41C322.19,73.55,320.11,72.09,319.77,69.67Zm8.7-7.13c0-1.82-1-3.37-3-3.37-1.67,0-2.78,1.31-2.78,3.39s1.11,3.35,2.81,3.35C327.62,65.91,328.47,64.38,328.47,62.54Z"/><g id="_logo_" data-name="&lt;logo&gt;"><path class="cls-1" d="M20.07,39.18A25.11,25.11,0,0,1,20,36.37l1.34-15.21h5L25,36.5c-.3,3.32,1,5.69,4.32,5.69s5.18-2.41,5.48-5.35l1.41-15.68h5L39.78,36.64c-.56,6-4.51,10.42-10.9,10.42-5,0-8.2-3.22-8.81-7.88"/><path class="cls-1" d="M42.3,34c.65-7.3,5.57-13.35,14.08-13.35a11.68,11.68,0,0,1,6.54,1.89l-.57,6a7.36,7.36,0,0,0-6.45-3c-5.29,0-8.19,3.68-8.61,8.33s1.94,8.22,7.07,8.22A9.5,9.5,0,0,0,61.46,39l-.56,6.19A14.31,14.31,0,0,1,54,47.12c-8.42,0-12.28-6.25-11.67-13.09"/><path class="cls-1" d="M66.89,21.16h5L70,41.81h7.12c.5,0,2.19,0,2.65-.05,0,.25-.45,4.77-.45,4.77H64.64Z"/><path class="cls-1" d="M92.76,30.63a6.8,6.8,0,0,0,.37-1.06s.08,0,.08,0a5.79,5.79,0,0,0,.18,1.08c.28,1.15,2.21,7.58,2.21,7.58H89.33s3.36-7.42,3.43-7.59M94,20h-.34L80.09,46.53h5.28l1.91-4h9.58l1.19,4h5.27Z"/></g></g></svg>