<svg id="Unboxed_White" data-name="Unboxed White" xmlns="http://www.w3.org/2000/svg" viewBox="0 0 298 89"><defs><style>.cls-1{fill:#fff;}</style></defs><path class="cls-1" d="M116.86,33.65h2.72l4.56,12.94h-2.73l-.87-2.75h-4.67L115,46.59h-2.66Zm-.38,8.18h3.42l-1.15-3.73c-.22-.69-.53-2-.53-2h0s-.32,1.3-.54,2Z"/><path class="cls-1" d="M124.3,42c0-2.9,1.65-4.91,4-4.91a3,3,0,0,1,2.63,1.38h.05V33.65h2.46V46.59H131V45.38h0a3.11,3.11,0,0,1-2.77,1.48C125.89,46.86,124.3,45,124.3,42Zm6.7,0c0-1.77-.58-3-2.16-3-1.35,0-2,1.2-2,2.92s.7,2.84,2,2.84C130.24,44.8,131,43.71,131,42Z"/><path class="cls-1" d="M134.14,37.3h2.5l1.48,4.82c.27.88.42,1.48.42,1.48h0s.13-.6.4-1.48l1.52-4.82H143l-3.24,9.29h-2.35Z"/><path class="cls-1" d="M148.9,45.56h0a2.85,2.85,0,0,1-2.73,1.24c-1.9,0-3.24-1-3.24-2.84,0-2,1.66-2.69,3.73-3,1.54-.22,2.24-.35,2.24-1s-.52-1.11-1.56-1.11-1.71.42-1.79,1.31h-2.19c.08-1.63,1.29-3.06,4-3.06s3.91,1.25,3.91,3.42v4.72c0,.71.11,1.12.33,1.29v.09h-2.37A2.39,2.39,0,0,1,148.9,45.56Zm0-2.25V41.92a7,7,0,0,1-1.72.54c-1.29.29-1.92.58-1.92,1.45s.58,1.18,1.45,1.18A1.94,1.94,0,0,0,148.92,43.31Z"/><path class="cls-1" d="M155.2,38.57h.05A3,3,0,0,1,158,37.05a3.2,3.2,0,0,1,3.21,3.48v6.06h-2.47v-5.7a1.54,1.54,0,0,0-1.61-1.7,1.94,1.94,0,0,0-1.88,2.13v5.27h-2.46V37.3h2.41Z"/><path class="cls-1" d="M162.27,42a4.58,4.58,0,0,1,4.64-4.91,3.93,3.93,0,0,1,4.21,3.4h-2.4A1.71,1.71,0,0,0,167,39c-1.49,0-2.25,1.14-2.25,2.94s.71,2.93,2.21,2.93a1.73,1.73,0,0,0,1.86-1.58h2.37A3.88,3.88,0,0,1,167,46.86,4.62,4.62,0,0,1,162.27,42Z"/><path class="cls-1" d="M171.8,41.94a4.6,4.6,0,0,1,4.58-4.89c3,0,4.57,2.28,4.57,5.59h-6.73A2.31,2.31,0,0,0,176.59,45a1.74,1.74,0,0,0,1.79-1.14h2.43a4,4,0,0,1-4.2,3A4.59,4.59,0,0,1,171.8,41.94Zm2.46-1h4.12a2,2,0,0,0-2-2A2.06,2.06,0,0,0,174.26,40.94Z"/><path class="cls-1" d="M181.66,42c0-2.9,1.64-4.91,4-4.91a3,3,0,0,1,2.63,1.38h.05V33.65h2.46V46.59h-2.37V45.38h0a3.08,3.08,0,0,1-2.76,1.48C183.25,46.86,181.66,45,181.66,42Zm6.69,0c0-1.77-.57-3-2.15-3-1.36,0-2,1.2-2,2.92s.7,2.84,2,2.84C187.59,44.8,188.35,43.71,188.35,42Z"/><path class="cls-1" d="M113.3,53.07h5.93c2.5,0,4.17,1.45,4.17,3.6A3,3,0,0,1,121,59.8v.05a2.57,2.57,0,0,1,2,2.61c.18,1.83.11,3.22.56,3.42V66H121c-.32-.15-.36-1.59-.47-3A2.21,2.21,0,0,0,118,60.81h-2.12V66H113.3Zm2.62,5.72h2.79c1.43,0,2.14-.75,2.14-1.78s-.67-1.82-2.07-1.82h-2.86Z"/><path class="cls-1" d="M124.31,61.36a4.6,4.6,0,0,1,4.58-4.89c3,0,4.58,2.28,4.58,5.59h-6.73a2.31,2.31,0,0,0,2.37,2.32,1.74,1.74,0,0,0,1.79-1.14h2.43a4,4,0,0,1-4.2,3A4.6,4.6,0,0,1,124.31,61.36Zm2.47-1h4.12a2,2,0,0,0-2-2A2.06,2.06,0,0,0,126.78,60.36Z"/><path class="cls-1" d="M134,63h2.28a1.78,1.78,0,0,0,2,1.54c1.08,0,1.7-.41,1.7-1.07,0-.88-1.18-1-2.45-1.23-1.66-.32-3.29-.78-3.29-2.8s1.66-3,3.78-3c2.45,0,3.8,1.21,4,3.08h-2.22c-.11-1-.74-1.36-1.79-1.36s-1.6.36-1.6,1,1.23.87,2.55,1.14c1.56.33,3.28.76,3.28,2.93,0,1.87-1.59,3-3.91,3C135.67,66.28,134.17,65,134,63Z"/><path class="cls-1" d="M142.88,61.36a4.6,4.6,0,0,1,4.58-4.89c3,0,4.58,2.28,4.58,5.59h-6.73a2.31,2.31,0,0,0,2.37,2.32,1.74,1.74,0,0,0,1.79-1.14h2.42a4,4,0,0,1-4.19,3A4.6,4.6,0,0,1,142.88,61.36Zm2.46-1h4.13a2,2,0,0,0-2-2A2.07,2.07,0,0,0,145.34,60.36Z"/><path class="cls-1" d="M158.67,65h0a2.85,2.85,0,0,1-2.73,1.24c-1.9,0-3.24-1-3.24-2.84,0-2,1.66-2.69,3.73-3,1.54-.22,2.24-.35,2.24-1s-.52-1.11-1.55-1.11-1.72.42-1.8,1.31h-2.19c.08-1.63,1.29-3.06,4-3.06S161,57.74,161,59.91v4.72c0,.71.11,1.12.33,1.29V66H159A2.39,2.39,0,0,1,158.67,65Zm0-2.25V61.34a7,7,0,0,1-1.72.54c-1.29.29-1.92.58-1.92,1.45s.58,1.18,1.45,1.18A1.94,1.94,0,0,0,158.69,62.73Z"/><path class="cls-1" d="M164.93,58.21h0a2.45,2.45,0,0,1,2.29-1.59,1.44,1.44,0,0,1,.57.07v2.15h-.05c-1.61-.16-2.77.69-2.77,2.64V66h-2.46V56.72h2.37Z"/><path class="cls-1" d="M168.24,61.38a4.58,4.58,0,0,1,4.64-4.91,3.93,3.93,0,0,1,4.21,3.4h-2.4A1.72,1.72,0,0,0,173,58.44c-1.48,0-2.24,1.14-2.24,2.94s.71,2.93,2.21,2.93a1.73,1.73,0,0,0,1.86-1.58h2.37A3.88,3.88,0,0,1,173,66.28,4.62,4.62,0,0,1,168.24,61.38Z"/><path class="cls-1" d="M180.71,57.94h.06a3,3,0,0,1,2.69-1.47A3.2,3.2,0,0,1,186.67,60V66h-2.46v-5.7a1.54,1.54,0,0,0-1.61-1.7,1.94,1.94,0,0,0-1.89,2.13V66h-2.46V53.07h2.46Z"/><path class="cls-1" d="M190.87,59.58c0-3.83,2.39-6.77,6.2-6.77,3.19,0,5.07,1.9,5.34,4.37h-2.6A2.57,2.57,0,0,0,197.07,55c-2.38,0-3.52,2-3.52,4.56s1.37,4.55,3.54,4.55a2.61,2.61,0,0,0,2.79-2.28h2.57A4.54,4.54,0,0,1,201,64.9a5.45,5.45,0,0,1-3.93,1.38C193.46,66.28,190.87,63.47,190.87,59.58Z"/><path class="cls-1" d="M203.17,61.38a4.85,4.85,0,1,1,4.85,4.9A4.72,4.72,0,0,1,203.17,61.38Zm7.2,0c0-1.81-.85-3.05-2.35-3.05s-2.35,1.24-2.35,3.05.83,3,2.35,3S210.37,63.18,210.37,61.38Z"/><path class="cls-1" d="M214,56.72h2.37V58h.05a3,3,0,0,1,2.7-1.5,2.76,2.76,0,0,1,2.57,1.63h0a3.24,3.24,0,0,1,2.78-1.63c2,0,3.06,1.27,3.06,3.29V66h-2.46V60.18c0-1-.52-1.59-1.43-1.59s-1.66.79-1.66,2V66h-2.47V60.18c0-1-.52-1.59-1.43-1.59s-1.66.79-1.66,2V66H214Z"/><path class="cls-1" d="M229.15,56.72h2.37v1.16h.06a3.25,3.25,0,0,1,2.73-1.41c2.46,0,4,2,4,4.91s-1.63,4.9-4,4.9A3,3,0,0,1,231.65,65h0v4.09h-2.46Zm6.7,4.73c0-1.76-.62-3-2.14-3s-2.15,1.32-2.15,3,.78,2.78,2.24,2.78C235.05,64.23,235.85,63.2,235.85,61.45Z"/><path class="cls-1" d="M245.38,66V64.92h0a3,3,0,0,1-2.66,1.34,3,3,0,0,1-3.22-3.35V56.72h2.44V62.5c0,1.08.49,1.68,1.54,1.68a1.87,1.87,0,0,0,1.86-2.1V56.72h2.46V66Z"/><path class="cls-1" d="M248.64,56.72h1.28V53.83h2.41v2.89h1.59v1.63h-1.59v4.93a.81.81,0,0,0,.92.92l.73,0V66s-.56,0-1.54,0c-1.19,0-2.52-.48-2.52-2.23V58.35h-1.28Z"/><path class="cls-1" d="M255.1,53.07h2.46v2.21H255.1Zm0,3.65h2.46V66H255.1Z"/><path class="cls-1" d="M261.54,58h.06a3,3,0,0,1,2.75-1.52,3.19,3.19,0,0,1,3.2,3.48V66h-2.46v-5.7a1.54,1.54,0,0,0-1.61-1.7,1.93,1.93,0,0,0-1.88,2.13V66h-2.46V56.72h2.4Z"/><path class="cls-1" d="M268.79,66.28h2.44c.2.58.73,1,1.87,1,1.39,0,2.06-.67,2.06-1.94v-1h-.05a3,3,0,0,1-2.43,1.09A4.18,4.18,0,0,1,268.59,61c0-2.77,1.67-4.54,4-4.54a3,3,0,0,1,2.57,1.23h0v-1h2.38V65.3a3.59,3.59,0,0,1-1.11,2.82,4.83,4.83,0,0,1-3.35,1C270.6,69.17,269,68.09,268.79,66.28Zm6.5-5.32a2.24,2.24,0,0,0-2.21-2.52c-1.25,0-2.08,1-2.08,2.54s.83,2.49,2.1,2.49C274.65,63.47,275.29,62.33,275.29,61Z"/><g id="_logo_" data-name="&lt;logo&gt;"><path class="cls-1" d="M20.07,39.18A25.11,25.11,0,0,1,20,36.37l1.34-15.21h5L25,36.5c-.3,3.32,1,5.69,4.32,5.69s5.18-2.41,5.48-5.35l1.41-15.68h5L39.78,36.64c-.56,6-4.51,10.42-10.9,10.42-5,0-8.2-3.22-8.81-7.88"/><path class="cls-1" d="M42.3,34c.65-7.3,5.57-13.35,14.08-13.35a11.68,11.68,0,0,1,6.54,1.89l-.57,6a7.36,7.36,0,0,0-6.45-3c-5.29,0-8.19,3.68-8.61,8.33s1.94,8.22,7.07,8.22A9.5,9.5,0,0,0,61.46,39l-.56,6.19A14.31,14.31,0,0,1,54,47.12c-8.42,0-12.28-6.25-11.67-13.09"/><path class="cls-1" d="M66.89,21.16h5L70,41.81h7.12c.5,0,2.19,0,2.65-.05,0,.25-.45,4.77-.45,4.77H64.64Z"/><path class="cls-1" d="M92.76,30.63a6.8,6.8,0,0,0,.37-1.06s.08,0,.08,0a5.79,5.79,0,0,0,.18,1.08c.28,1.15,2.21,7.58,2.21,7.58H89.33s3.36-7.42,3.43-7.59M94,20h-.34L80.09,46.53h5.28l1.91-4h9.58l1.19,4h5.27Z"/></g></svg>